<svg xmlns:xlink="http://www.w3.org/1999/xlink" xmlns="http://www.w3.org/2000/svg" alt="Person messaging on laptop" class="bottomAligned" width="410.13" viewBox="0 0 410.13 288.91" height="288.91"><defs><linearGradient id="e8d60408-a6bb-4fec-835c-f1fb02b2a1fc" y1="77.69" x2="145.73" y2="77.69" gradientUnits="userSpaceOnUse"><stop offset="0" stop-color="#3ed8c3"></stop><stop offset="1" stop-color="#4193a8"></stop></linearGradient><linearGradient id="f9417fe0-87b1-4f29-9bc2-898f2ec3d233" x1="3540.06" y1="77.69" x2="3685.79" y2="77.69" gradientTransform="matrix(-1, 0, 0, 1, 3910.36, 0)" xlink:href="#e8d60408-a6bb-4fec-835c-f1fb02b2a1fc"></linearGradient><linearGradient id="bc75284e-eb2e-4fba-9127-049a1c36039f" x1="3282.11" y1="56.28" x2="3427.83" y2="56.28" gradientTransform="matrix(-1, 0, 0, 1, 3548.38, 0)" xlink:href="#e8d60408-a6bb-4fec-835c-f1fb02b2a1fc"></linearGradient><linearGradient id="a766bf20-8c12-4016-885f-1bf5ef06c4e3" x1="137.26" y1="213.67" x2="277.41" y2="213.67" gradientUnits="userSpaceOnUse"><stop offset="0" stop-color="#5498cf"></stop><stop offset="1" stop-color="#5498cf"></stop></linearGradient><linearGradient id="b64361a4-c673-429e-9265-f0c25555ada1" x1="150.2" y1="234.68" x2="233.53" y2="234.68" xlink:href="#a766bf20-8c12-4016-885f-1bf5ef06c4e3"></linearGradient><linearGradient id="e8d60408-a6bb-4fec-835c-f1fb02b2a1fc" y1="77.69" x2="145.73" y2="77.69" gradientUnits="userSpaceOnUse"><stop offset="0" stop-color="#3ed8c3"></stop><stop offset="1" stop-color="#4193a8"></stop></linearGradient><linearGradient id="f9417fe0-87b1-4f29-9bc2-898f2ec3d233" x1="3540.06" y1="77.69" x2="3685.79" y2="77.69" gradientTransform="matrix(-1, 0, 0, 1, 3910.36, 0)" xlink:href="#e8d60408-a6bb-4fec-835c-f1fb02b2a1fc"></linearGradient><linearGradient id="bc75284e-eb2e-4fba-9127-049a1c36039f" x1="3282.11" y1="56.28" x2="3427.83" y2="56.28" gradientTransform="matrix(-1, 0, 0, 1, 3548.38, 0)" xlink:href="#e8d60408-a6bb-4fec-835c-f1fb02b2a1fc"></linearGradient><linearGradient id="a766bf20-8c12-4016-885f-1bf5ef06c4e3" x1="137.26" y1="213.67" x2="277.41" y2="213.67" gradientUnits="userSpaceOnUse"><stop offset="0" stop-color="#5498cf"></stop><stop offset="1" stop-color="#5498cf"></stop></linearGradient><linearGradient id="b64361a4-c673-429e-9265-f0c25555ada1" x1="150.2" y1="234.68" x2="233.53" y2="234.68" xlink:href="#a766bf20-8c12-4016-885f-1bf5ef06c4e3"></linearGradient></defs><g id="ada91873-6c81-48c9-8844-24632098845d" data-name="Layer 2"><g id="bdd55a6b-c6cc-41dd-9e83-e2273582e720" data-name="Layer 1"><path d="M15.42,21.4H130.31a15.47,15.47,0,0,1,15.42,15.42V92.34a15.47,15.47,0,0,1-15.42,15.42H113.73v21.82a4.38,4.38,0,0,1-7.47,3.09L81.49,107.76H15.42A15.47,15.47,0,0,1,0,92.34V36.82A15.47,15.47,0,0,1,15.42,21.4" style="fill-rule: evenodd; opacity: 0.58;" fill="url(&quot;#e8d60408-a6bb-4fec-835c-f1fb02b2a1fc&quot;)"></path><path d="M354.89,21.4H240a15.46,15.46,0,0,0-15.41,15.42V92.34A15.46,15.46,0,0,0,240,107.76h16.59v21.82a4.37,4.37,0,0,0,7.47,3.09l24.76-24.91h66.08A15.46,15.46,0,0,0,370.3,92.34V36.82A15.46,15.46,0,0,0,354.89,21.4" style="fill-rule: evenodd; opacity: 0.65;" fill="url(&quot;#f9417fe0-87b1-4f29-9bc2-898f2ec3d233&quot;)"></path><path d="M250.86,0H136a15.47,15.47,0,0,0-15.42,15.42V70.94A15.47,15.47,0,0,0,136,86.36h16.58v21.82a4.37,4.37,0,0,0,7.47,3.09l24.77-24.91h66.07a15.47,15.47,0,0,0,15.42-15.42V15.42A15.47,15.47,0,0,0,250.86,0" style="fill-rule: evenodd; opacity: 0.65;" fill="url(&quot;#bc75284e-eb2e-4fba-9127-049a1c36039f&quot;)"></path><path d="M107.45,279.1c0,5.42,26.55,9.81,81.74,9.81s220.94-6.12,220.94-11.54-165.75-8.09-220.94-8.09S107.45,273.68,107.45,279.1Z" style="opacity: 0.1;" fill="#2A3756"></path><path d="M276.69,247c-6.95,25.18-30.18,38.58-67.65,38.58-48.18,0-58.84-11.6-68-38.58-8-23.58-3.84-97.76,19.86-104.8,20.63-6.13,33.61,61.7,48,61.7C246.31,203.87,283,224,276.69,247Z" style="" fill="url(&quot;#a766bf20-8c12-4016-885f-1bf5ef06c4e3&quot;)"></path><g id="af71701f-f082-44a1-aed0-543ac3435522" data-name="head"><path d="M203.37,108.84c5.15,0,11.57,2.78,10.81,11.23-.52,5.93-2,16.07-5.86,16.39-1.74.14-7.66-2-7.66-2l-.49,7.08-11.12-2.92,4.36-9.18S186.4,108.67,203.37,108.84Z" style="" fill="#E2857E"></path><path d="M212.44,112.36l-10.13,8.81c-.66-2.76-2.78-2.64-4.32-1-1.9,2.08.41,4.89-.07,5.64s-3.85,3.63-4.51,3.56-11.29-8.75-2.1-21.11C195.55,102.61,207.13,103.26,212.44,112.36Z" style="" fill="#2A3756"></path><path d="M207.38,99.56c-.11,4.07-2.73,6.53-6.43,6.43s-5.31-2.81-5.19-6.88,2.15-7.06,5.85-7S207.5,95.49,207.38,99.56Z" style="" fill="#2A3756"></path></g><g id="a347f8b1-6b17-4633-9cbf-3321dcf82eed" data-name="leg"><path d="M235.8,215.38c2.83.17,3.43-.43,16.81,9.27,7.33,5.32,18.67,9.9,24.95,12.48l4.84-6.37C271,222.18,244.28,201.6,239,198.92c-7.33-3.71-35.7,20-35.7,20s-16.3-.19-20.9,10.15c-.62,1.39,39-2,43-5.29C230.75,219.49,234.4,215.29,235.8,215.38Z" style="" fill="#D9DADB"></path><polygon points="307.54 230.75 293.51 249.79 287.34 244.24 291.43 234.71 304.31 228.21 307.54 230.75" fill="#1D273F" style=""></polygon><polygon points="287.66 243.56 290.77 236.23 285.37 233.18 281.28 239.3 287.66 243.56" fill="#FFFFFF" style=""></polygon><polygon points="285.37 233.18 281.28 239.3 277.56 237.13 282.18 231.05 285.37 233.18" fill="#E2857E" style=""></polygon></g><g id="eab329db-e1e2-4090-a9d9-52623e4273e2" data-name="leg"><path d="M177.08,232.11c6.19,16.7,48-9,50.79-5.16s2.48,6.18,9.08,18.78c3.83,7.32,11.54,17.15,16.18,22.11l6.65-3.56C253,251.75,240,220.78,237.2,215.71c-4-7.18-39.45.35-39.45.35s-14.58-7.22-23.07.27C172.31,218.42,176.14,229.59,177.08,232.11Z" style="" fill="#FFFFFF"></path><polygon points="280.51 277.99 258.09 285.55 256.23 277.46 265.04 272 279.32 274.07 280.51 277.99" fill="#2A3756" style=""></polygon><polygon points="257.82 276.28 264.28 272.47 261.39 267.11 254.35 269.84 257.82 276.28" fill="#FFFFFF" style=""></polygon><polygon points="261.39 267.11 254.35 269.84 253.13 267.84 259.78 264.28 261.39 267.11" fill="#E2857E" style=""></polygon></g><g id="b77b5c2e-84bf-4f3d-8466-0b832da9d632" data-name="hand"><path d="M199,144.66c7,.6,8.75,17.38,1.09,48l29.19,10.4-4.88,5s-30.28-1-35.26-12S186.14,143.56,199,144.66Z" style="" fill="#5498CF"></path><path d="M235.6,201.31c4.3.13,7.71,2.41,7.62,5.08a3.21,3.21,0,0,1-.52,1.65l-14,.4a3.62,3.62,0,0,1-1.05-2.54C227.76,203.22,231.31,201.17,235.6,201.31Z" style="" fill="#D37B79"></path></g><path d="M203.3,137.82l-35.49-8.7s-7.21,22.49,10.65,23.54S203.3,137.82,203.3,137.82Z" style="" fill="#7FD2EF"></path><path d="M193.6,136.69c-5.1.32-10.12,1.56-13.41,11.2-4.69,13.27-8,36.4-8.13,80.3l41.65-15.58c-4.29-22.5-2.54-67.58-10.41-74.79C200,136.45,197.94,136.43,193.6,136.69Z" style="" fill="#7FD2EF"></path><path d="M191.19,146.28c7,0,8.75,17.37,1.09,48l24,8.06.29,7.34s-30.28-.12-35.26-11.2S183.08,146.26,191.19,146.28Z" style="" fill="#7FD2EF"></path><path d="M227.77,202.92c4.3.14,7.71,2.41,7.62,5.08a3.27,3.27,0,0,1-.52,1.65l-14,.4a3.54,3.54,0,0,1-1-2.54C219.92,204.84,223.47,202.78,227.77,202.92Z" style="" fill="#E2857E"></path><polygon points="216.41 204.18 222.64 205.78 222.1 210.01 216.3 210.19 216.41 204.18" fill="#E2857E" style=""></polygon><g id="b5263957-43e3-48ec-ad4a-d7538dee7d1b" data-name="laptop"><polygon points="253.76 210.76 231.03 210.76 247.01 185.51 269.74 185.51 253.76 210.76" fill="#EBECED" style=""></polygon><polygon points="238.69 210.76 209.04 210.76 209.04 209.29 239.86 208.57 238.69 210.76" fill="#EBECED" style=""></polygon></g><path d="M150.2,204.59s33.84,9.53,45.26,17.1c5.49,3.64,15.73,8.3,23.35,11.51,3.4,1.43,11.53.24,11.53.24l3.19,7.39-49.81,23.95Z" style="" fill="url(&quot;#b64361a4-c673-429e-9265-f0c25555ada1&quot;)"></path><path d="M156.87,209s19.85-2.78,41.32,12.78S230,232.29,230,232.29s-13.26,10-33.1-4.41A116.29,116.29,0,0,0,156.87,209Z" style="" fill="#536FAD"></path><path d="M89.69,249.09c2.54-3.08,6.18-4.07,9.23-5.68s5.9-3.21,8.71-3.71,5.19,1,7.4,1.1c4.7.25,6.65-.91,8.65-.18,2.38.87,4.18,2.31,4.14,4.81a4.36,4.36,0,0,1-4.64,4.29,10.59,10.59,0,0,0-6.2.17,3,3,0,0,0-5.39,1.82,12.8,12.8,0,0,1-4.56.48c-3.78-.5-6.24,2-9.85,6.26-1.84,2.17-5.29,1.76-7.43.1a5.56,5.56,0,0,1-1-1C86.67,255,86.33,253.17,89.69,249.09Z" style="" fill="#00B2A0"></path><path d="M72.42,228.19c3.16-7.81,9.16-17.31,10-21.1.54-2.5-1.82-15.37-2.08-20.11a4.24,4.24,0,0,0,.7-7.9c.84-4.79,2.69-10.25,6.78-11.29,8.78-2.23,6.52,19.84,8.2,26a37.35,37.35,0,0,1-4.14,29.86c-3.5,5.64-6.58,9.41-6.26,14,.52,7.53,1,14.57.31,16.62a6.54,6.54,0,0,1-7.41,4.44c-.27-.05-.53-.15-.8-.2C68.86,256.9,67.62,240.06,72.42,228.19Z" style="" fill="#00B2A0"></path><path d="M81.94,273.94l.5-.15c-.25-.86-.85-5.12-1.37-8.87-.41-3-.77-5.54-.92-6.18-4.11-17.35-.24-26.65,5.11-39.52.36-.85.71-1.71,1.08-2.59,1.8-4.38,3.84-12.07,3.24-23.75a79.47,79.47,0,0,0-1.51-12.22l-.5.11a81.81,81.81,0,0,1,1.49,12.14c.59,11.59-1.42,19.19-3.21,23.52L84.78,219c-5.39,13-9.29,22.32-5.14,39.84.14.62.52,3.3.91,6.13C81.08,268.76,81.68,273,81.94,273.94Z" style="" fill="#346009"></path><polygon points="79.11 235.35 79.54 235.05 73.32 226.07 73.08 226.63 79.11 235.35" fill="#346009" style=""></polygon><polygon points="78.57 238.19 78.97 237.85 71.84 229.73 71.65 230.3 78.57 238.19" fill="#346009" style=""></polygon><polygon points="89.34 202.62 97.03 198.76 96.94 198.21 89.11 202.16 89.34 202.62" fill="#346009" style=""></polygon><polygon points="89.03 205.86 97.24 200.57 97.18 199.99 88.74 205.42 89.03 205.86" fill="#346009" style=""></polygon><path d="M58.85,243.52a14.08,14.08,0,0,0-2.4-1.81,31.4,31.4,0,0,1-9.75-9.34,22.06,22.06,0,0,1-2.53-6.71c-.85-3.27.31-6.57-2.44-9.6-2.43-2.67-4.37-7.2-1.7-9.63a6.54,6.54,0,0,1,9.23.44c4.92,5.41,6.07,18.25,14.44,24a28.12,28.12,0,0,1,12,21s1.34,9.48-6.59,10C61,262.42,61.23,246.9,58.85,243.52Z" style="" fill="#3ED8C3"></path><path d="M72.29,275.28h.53v-.08c-.07-2.94-.26-11.86-.53-14.11-.92-7.44-3-13.47-6.29-18.44a39.06,39.06,0,0,0-8.44-8.84A18.36,18.36,0,0,1,54,230.32c-1.42-2.16-2.26-5-3.15-8.07-1.16-4-2.37-8.09-5-10.79l-.37.36c2.54,2.61,3.72,6.66,4.87,10.58.9,3.07,1.75,6,3.21,8.2a18.38,18.38,0,0,0,3.72,3.6c5,4.09,12.48,10.27,14.54,26.94.18,1.48.36,6.21.52,14.06Z" style="" fill="#346009"></path><polygon points="51.51 225.79 51.55 225.27 43.96 224.62 44.05 225.15 51.51 225.79" fill="#346009" style=""></polygon><polygon points="52.35 228.13 52.43 227.61 44.35 226.35 44.5 226.9 52.35 228.13" fill="#346009" style=""></polygon><polygon points="65.44 242.07 68.86 235.41 68.49 234.99 64.98 241.84 65.44 242.07" fill="#346009" style=""></polygon><path d="M86.31,268.13a50,50,0,0,1,3.53-9.61,22.84,22.84,0,0,1,8.94-8.7,36.83,36.83,0,0,1,11.14-3.89,54.2,54.2,0,0,1,13.53-.84l0-.52a54.75,54.75,0,0,0-13.67.84,37.72,37.72,0,0,0-11.3,4,23.32,23.32,0,0,0-9.14,8.9,50,50,0,0,0-3.6,9.78Z" style="" fill="#346009"></path><polygon points="107.96 246.22 110.3 239.75 109.77 239.67 107.47 246.05 107.96 246.22" fill="#346009" style=""></polygon><polygon points="105.56 246.9 109.04 239.61 108.46 239.61 105.08 246.68 105.56 246.9" fill="#346009" style=""></polygon><polygon points="99.94 255.39 93.69 253.04 93.51 253.53 99.54 255.8 99.94 255.39" fill="#346009" style=""></polygon><path d="M96.7,275.53a13.84,13.84,0,0,1-5.14,10.55H66.63a13.84,13.84,0,0,1-5.14-10.55,13.41,13.41,0,0,1,3.24-8.64H93.47A13.45,13.45,0,0,1,96.7,275.53Z" style="" fill="#EA8968"></path></g></g></svg>